{
  "accessors": [
    {
      "bufferView": 1,
      "componentType": 5126,
      "count": 2598,
      "max": [
        80.0,
        78.99999237060547,
        12.520813941955566
      ],
      "min": [
        -92.0,
        -93.0,
        -3.8997550010681152
      ],
      "type": "VEC3"
    },
    {
      "bufferView": 1,
      "byteOffset": 31176,
      "componentType": 5126,
      "count": 2598,
      "max": [
        1.0,
        1.0,
        0.9999933242797852
      ],
      "min": [
        -1.0,
        -1.0,
        -0.9999933242797852
      ],
      "type": "VEC3"
    },
    {
      "bufferView": 0,
      "componentType": 5125,
      "count": 10098,
      "type": "SCALAR"
    }
  ],
  "asset": {
    "extras": {
      "author": "grahamdiggins (https://sketchfab.com/grahamdiggins)",
      "license": "CC-BY-4.0 (http://creativecommons.org/licenses/by/4.0/)",
      "source": "https://sketchfab.com/3d-models/circle-of-protection-123cad467a3e4c72a98d2df92ea125ee",
      "title": "circle of protection."
    },
    "generator": "Sketchfab-12.66.0",
    "version": "2.0"
  },
  "bufferViews": [
    {
      "buffer": 0,
      "byteLength": 40392,
      "name": "floatBufferViews",
      "target": 34963
    },
    {
      "buffer": 0,
      "byteLength": 62352,
      "byteOffset": 40392,
      "byteStride": 12,
      "name": "floatBufferViews",
      "target": 34962
    }
  ],
  "buffers": [
    {
      "byteLength": 102744,
      "uri": "scene.bin"
    }
  ],
  "materials": [
    {
      "doubleSided": true,
      "name": "Scene_-_Root",
      "pbrMetallicRoughness": {
        "metallicFactor": 0.0,
        "roughnessFactor": 0.6
      }
    }
  ],
  "meshes": [
    {
      "name": "Object_0",
      "primitives": [
        {
          "attributes": {
            "NORMAL": 1,
            "POSITION": 0
          },
          "indices": 2,
          "material": 0,
          "mode": 4
        }
      ]
    }
  ],
  "nodes": [
    {
      "children": [
        1
      ],
      "matrix": [
        1.0,
        0.0,
        0.0,
        0.0,
        0.0,
        2.220446049250313e-16,
        -1.0,
        0.0,
        0.0,
        1.0,
        2.220446049250313e-16,
        0.0,
        0.0,
        0.0,
        0.0,
        1.0
      ],
      "name": "Sketchfab_model"
    },
    {
      "children": [
        2
      ],
      "name": "cop inner power.stl.cleaner.materialmerger.gles"
    },
    {
      "mesh": 0,
      "name": "Object_2"
    }
  ],
  "scene": 0,
  "scenes": [
    {
      "name": "Sketchfab_Scene",
      "nodes": [
        0
      ]
    }
  ]
}
