{
  "accessors": [
    {
      "bufferView": 1,
      "componentType": 5126,
      "count": 390,
      "max": [
        35.327110290527344,
        42.45161819458008,
        19.0
      ],
      "min": [
        -6.657840728759766,
        0.46666568517684937,
        0.0
      ],
      "type": "VEC3"
    },
    {
      "bufferView": 1,
      "byteOffset": 4680,
      "componentType": 5126,
      "count": 390,
      "max": [
        1.0,
        1.0,
        1.0
      ],
      "min": [
        -1.0,
        -1.0,
        -1.0
      ],
      "type": "VEC3"
    },
    {
      "bufferView": 0,
      "componentType": 5125,
      "count": 1266,
      "type": "SCALAR"
    }
  ],
  "asset": {
    "extras": {
      "author": "Three Design (https://sketchfab.com/threedesignstudios)",
      "license": "CC-BY-4.0 (http://creativecommons.org/licenses/by/4.0/)",
      "source": "https://sketchfab.com/3d-models/td-141-a-original-square-fire-table-194ea8b4dc744392a007a0628748175d",
      "title": "TD-141 - A - Original Square Fire Table"
    },
    "generator": "Sketchfab-15.0.0",
    "version": "2.0"
  },
  "bufferViews": [
    {
      "buffer": 0,
      "byteLength": 5064,
      "name": "floatBufferViews",
      "target": 34963
    },
    {
      "buffer": 0,
      "byteLength": 9360,
      "byteOffset": 5064,
      "byteStride": 12,
      "name": "floatBufferViews",
      "target": 34962
    }
  ],
  "buffers": [
    {
      "byteLength": 14424,
      "uri": "scene.bin"
    }
  ],
  "materials": [
    {
      "name": "Color_M08",
      "pbrMetallicRoughness": {
        "baseColorFactor": [
          0.0,
          0.0,
          0.0,
          1.0
        ],
        "metallicFactor": 0.0,
        "roughnessFactor": 0.4
      }
    }
  ],
  "meshes": [
    {
      "name": "Material2",
      "primitives": [
        {
          "attributes": {
            "NORMAL": 1,
            "POSITION": 0
          },
          "indices": 2,
          "material": 0,
          "mode": 4
        }
      ]
    }
  ],
  "nodes": [
    {
      "children": [
        1
      ],
      "matrix": [
        0.02500000037252903,
        0.0,
        0.0,
        0.0,
        0.0,
        5.551115205843844e-18,
        -0.02500000037252903,
        0.0,
        0.0,
        0.02500000037252903,
        5.551115205843844e-18,
        0.0,
        0.0,
        0.0,
        0.0,
        1.0
      ],
      "name": "Sketchfab_model"
    },
    {
      "children": [
        2,
        3
      ],
      "name": "Collada visual scene group"
    },
    {
      "mesh": 0,
      "name": "Material2"
    },
    {
      "children": [
        4,
        6
      ],
      "name": "SketchUp"
    },
    {
      "children": [
        5
      ],
      "matrix": [
        0.6092514,
        -0.7929771,
        0.0,
        0.0,
        0.2198337,
        0.1689002,
        0.9608048,
        0.0,
        -0.7618963,
        -0.5853717,
        0.2772257,
        0.0,
        -49.1072311,
        -29.3401775,
        35.4855461,
        1.0
      ],
      "name": "skp_camera_Last_Saved_SketchUp_View"
    },
    {
      "name": "ID1"
    },
    {
      "children": [
        7
      ],
      "matrix": [
        0.6159819,
        -0.7877603,
        0.0,
        0.0,
        0.3248648,
        0.2540251,
        0.9110072,
        0.0,
        -0.7176553,
        -0.561164,
        0.4123905,
        0.0,
        -44.1048393,
        -27.1507549,
        45.265831,
        1.0
      ],
      "name": "skp_camera_3D_Object_Preview"
    },
    {
      "name": "ID2"
    }
  ],
  "scene": 0,
  "scenes": [
    {
      "name": "Sketchfab_Scene",
      "nodes": [
        0
      ]
    }
  ]
}
