{
  "accessors": [
    {
      "bufferView": 2,
      "componentType": 5126,
      "count": 744,
      "max": [
        1.0829763412475586,
        1.082976222038269,
        1.0
      ],
      "min": [
        -1.0829763412475586,
        -1.0829763412475586,
        -1.0
      ],
      "type": "VEC3"
    },
    {
      "bufferView": 2,
      "byteOffset": 8928,
      "componentType": 5126,
      "count": 744,
      "max": [
        1.0,
        1.0,
        0.9999979734420776
      ],
      "min": [
        -1.0,
        -1.0,
        -0.9999979734420776
      ],
      "type": "VEC3"
    },
    {
      "bufferView": 1,
      "componentType": 5126,
      "count": 744,
      "max": [
        1.0,
        1.0
      ],
      "min": [
        0.0,
        0.01138907577842474
      ],
      "type": "VEC2"
    },
    {
      "bufferView": 0,
      "componentType": 5125,
      "count": 2868,
      "type": "SCALAR"
    },
    {
      "bufferView": 2,
      "byteOffset": 17856,
      "componentType": 5126,
      "count": 196,
      "max": [
        1.0,
        1.0,
        10.028756141662598
      ],
      "min": [
        -1.0,
        -1.0,
        -1.0
      ],
      "type": "VEC3"
    },
    {
      "bufferView": 2,
      "byteOffset": 20208,
      "componentType": 5126,
      "count": 196,
      "max": [
        1.0,
        1.0,
        0.6857050061225891
      ],
      "min": [
        -1.0,
        -1.0,
        -0.6857035160064697
      ],
      "type": "VEC3"
    },
    {
      "bufferView": 1,
      "byteOffset": 5952,
      "componentType": 5126,
      "count": 196,
      "max": [
        1.0,
        1.0
      ],
      "min": [
        0.0,
        0.01000000536441803
      ],
      "type": "VEC2"
    },
    {
      "bufferView": 0,
      "byteOffset": 11472,
      "componentType": 5125,
      "count": 756,
      "type": "SCALAR"
    },
    {
      "bufferView": 2,
      "byteOffset": 22560,
      "componentType": 5126,
      "count": 196,
      "max": [
        1.0,
        1.0,
        11.480050086975098
      ],
      "min": [
        -1.0,
        -1.0,
        -1.0
      ],
      "type": "VEC3"
    },
    {
      "bufferView": 2,
      "byteOffset": 24912,
      "componentType": 5126,
      "count": 196,
      "max": [
        1.0,
        1.0,
        0.6857134699821472
      ],
      "min": [
        -1.0,
        -1.0,
        -0.6857035160064697
      ],
      "type": "VEC3"
    },
    {
      "bufferView": 1,
      "byteOffset": 7520,
      "componentType": 5126,
      "count": 196,
      "max": [
        1.0,
        1.0
      ],
      "min": [
        0.0,
        0.01000000536441803
      ],
      "type": "VEC2"
    },
    {
      "bufferView": 0,
      "byteOffset": 14496,
      "componentType": 5125,
      "count": 756,
      "type": "SCALAR"
    },
    {
      "bufferView": 2,
      "byteOffset": 27264,
      "componentType": 5126,
      "count": 637,
      "max": [
        1.2500001192092896,
        1.25,
        0.35611096024513245
      ],
      "min": [
        -1.2500001192092896,
        -1.25,
        -0.35611096024513245
      ],
      "type": "VEC3"
    },
    {
      "bufferView": 2,
      "byteOffset": 34908,
      "componentType": 5126,
      "count": 637,
      "max": [
        0.9999653100967407,
        1.0,
        0.9999423027038574
      ],
      "min": [
        -0.9999653100967407,
        -1.0,
        -0.9999423027038574
      ],
      "type": "VEC3"
    },
    {
      "bufferView": 1,
      "byteOffset": 9088,
      "componentType": 5126,
      "count": 637,
      "max": [
        1.0,
        1.0
      ],
      "min": [
        8.881784197001252e-16,
        2.220446049250313e-16
      ],
      "type": "VEC2"
    },
    {
      "bufferView": 0,
      "byteOffset": 17520,
      "componentType": 5125,
      "count": 3456,
      "type": "SCALAR"
    }
  ],
  "asset": {
    "extras": {
      "author": "Rofnay (https://sketchfab.com/Rofnay)",
      "license": "CC-BY-4.0 (http://creativecommons.org/licenses/by/4.0/)",
      "source": "https://sketchfab.com/3d-models/glowstick-cbc7f31c658247219c32b083183513e5",
      "title": "Glowstick"
    },
    "generator": "Sketchfab-12.65.0",
    "version": "2.0"
  },
  "bufferViews": [
    {
      "buffer": 0,
      "byteLength": 31344,
      "name": "floatBufferViews",
      "target": 34963
    },
    {
      "buffer": 0,
      "byteLength": 14184,
      "byteOffset": 31344,
      "byteStride": 8,
      "name": "floatBufferViews",
      "target": 34962
    },
    {
      "buffer": 0,
      "byteLength": 42552,
      "byteOffset": 45528,
      "byteStride": 12,
      "name": "floatBufferViews",
      "target": 34962
    }
  ],
  "buffers": [
    {
      "byteLength": 88080,
      "uri": "scene.bin"
    }
  ],
  "materials": [
    {
      "doubleSided": true,
      "name": "Body",
      "pbrMetallicRoughness": {
        "baseColorFactor": [
          0.0331028,
          0.0331028,
          0.0331028,
          1.0
        ],
        "metallicFactor": 0.0,
        "roughnessFactor": 0.992597988895442
      }
    },
    {
      "doubleSided": true,
      "emissiveFactor": [
        0.0,
        0.4000015,
        1.0
      ],
      "name": "Glow",
      "pbrMetallicRoughness": {
        "baseColorFactor": [
          0.0,
          0.0800001,
          0.8,
          1.0
        ],
        "metallicFactor": 0.0,
        "roughnessFactor": 0.9742905688295402
      }
    }
  ],
  "meshes": [
    {
      "name": "Cylinder_Body_0",
      "primitives": [
        {
          "attributes": {
            "NORMAL": 1,
            "POSITION": 0,
            "TEXCOORD_0": 2
          },
          "indices": 3,
          "material": 0,
          "mode": 4
        }
      ]
    },
    {
      "name": "Cylinder.001_Glow_0",
      "primitives": [
        {
          "attributes": {
            "NORMAL": 5,
            "POSITION": 4,
            "TEXCOORD_0": 6
          },
          "indices": 7,
          "material": 1,
          "mode": 4
        }
      ]
    },
    {
      "name": "Cylinder.002_Body_0",
      "primitives": [
        {
          "attributes": {
            "NORMAL": 9,
            "POSITION": 8,
            "TEXCOORD_0": 10
          },
          "indices": 11,
          "material": 0,
          "mode": 4
        }
      ]
    },
    {
      "name": "Torus_Body_0",
      "primitives": [
        {
          "attributes": {
            "NORMAL": 13,
            "POSITION": 12,
            "TEXCOORD_0": 14
          },
          "indices": 15,
          "material": 0,
          "mode": 4
        }
      ]
    }
  ],
  "nodes": [
    {
      "children": [
        1
      ],
      "matrix": [
        1.0,
        0.0,
        0.0,
        0.0,
        0.0,
        2.220446049250313e-16,
        -1.0,
        0.0,
        0.0,
        1.0,
        2.220446049250313e-16,
        0.0,
        0.0,
        0.0,
        0.0,
        1.0
      ],
      "name": "Sketchfab_model"
    },
    {
      "children": [
        2
      ],
      "matrix": [
        1.0,
        0.0,
        0.0,
        0.0,
        0.0,
        0.0,
        1.0,
        0.0,
        0.0,
        -1.0,
        0.0,
        0.0,
        0.0,
        0.0,
        0.0,
        1.0
      ],
      "name": "a583ccf6788342d8850605300a6b4a90.fbx"
    },
    {
      "children": [
        3,
        5,
        7,
        9
      ],
      "name": "RootNode"
    },
    {
      "children": [
        4
      ],
      "matrix": [
        100.0,
        0.0,
        0.0,
        0.0,
        0.0,
        -1.629206793918314e-05,
        -99.99999999999868,
        0.0,
        0.0,
        99.99999999999868,
        -1.629206793918314e-05,
        0.0,
        0.0,
        100.0,
        0.0,
        1.0
      ],
      "name": "Cylinder"
    },
    {
      "mesh": 0,
      "name": "Cylinder_Body_0"
    },
    {
      "children": [
        6
      ],
      "matrix": [
        90.0,
        0.0,
        0.0,
        0.0,
        0.0,
        -1.4662861145264827e-05,
        -89.9999999999988,
        0.0,
        0.0,
        99.99999999999868,
        -1.629206793918314e-05,
        0.0,
        0.0,
        177.0,
        0.0,
        1.0
      ],
      "name": "Cylinder.001"
    },
    {
      "mesh": 1,
      "name": "Cylinder.001_Glow_0"
    },
    {
      "children": [
        8
      ],
      "matrix": [
        95.0,
        0.0,
        0.0,
        0.0,
        0.0,
        -1.5477464542223984e-05,
        -94.99999999999875,
        0.0,
        0.0,
        14.000004768371397,
        -2.2808902883519777e-06,
        0.0,
        0.0,
        1078.0,
        0.0,
        1.0
      ],
      "name": "Cylinder.002"
    },
    {
      "mesh": 2,
      "name": "Cylinder.002_Body_0"
    },
    {
      "children": [
        10
      ],
      "matrix": [
        76.0,
        0.0,
        0.0,
        0.0,
        0.0,
        -75.99999999999916,
        1.147568073143562e-05,
        0.0,
        0.0,
        -1.147568073143562e-05,
        -75.99999999999916,
        0.0,
        0.0,
        1238.4530029296875,
        0.0,
        1.0
      ],
      "name": "Torus"
    },
    {
      "mesh": 3,
      "name": "Torus_Body_0"
    }
  ],
  "scene": 0,
  "scenes": [
    {
      "name": "Sketchfab_Scene",
      "nodes": [
        0
      ]
    }
  ]
}
