{
  "accessors": [
    {
      "bufferView": 2,
      "componentType": 5126,
      "count": 4058,
      "max": [
        2.6393439769744873,
        2.013129949569702,
        0.7994920015335083
      ],
      "min": [
        -2.6393439769744873,
        -2.0157270431518555,
        -0.3574970066547394
      ],
      "type": "VEC3"
    },
    {
      "bufferView": 2,
      "byteOffset": 48696,
      "componentType": 5126,
      "count": 4058,
      "max": [
        0.9999608993530273,
        1.0,
        0.9999995231628418
      ],
      "min": [
        -0.9999608993530273,
        -1.0,
        -0.999983549118042
      ],
      "type": "VEC3"
    },
    {
      "bufferView": 1,
      "componentType": 5126,
      "count": 4058,
      "max": [
        0.9909960031509399,
        0.9889900088310242
      ],
      "min": [
        0.029606999829411507,
        0.0795930027961731
      ],
      "type": "VEC2"
    },
    {
      "bufferView": 0,
      "componentType": 5125,
      "count": 21192,
      "type": "SCALAR"
    },
    {
      "bufferView": 2,
      "byteOffset": 97392,
      "componentType": 5126,
      "count": 142,
      "max": [
        0.3185890018939972,
        -0.8955299854278564,
        0.34272301197052
      ],
      "min": [
        -0.3185890018939972,
        -1.352450966835022,
        0.1769140064716339
      ],
      "type": "VEC3"
    },
    {
      "bufferView": 2,
      "byteOffset": 99096,
      "componentType": 5126,
      "count": 142,
      "max": [
        0.88880455493927,
        -0.18552754819393158,
        0.868306577205658
      ],
      "min": [
        -0.88880455493927,
        -0.462581068277359,
        0.4181711971759796
      ],
      "type": "VEC3"
    },
    {
      "bufferView": 1,
      "byteOffset": 32464,
      "componentType": 5126,
      "count": 142,
      "max": [
        0.16378599405288696,
        0.49265798926353455
      ],
      "min": [
        0.07147800177335739,
        0.46863698959350586
      ],
      "type": "VEC2"
    },
    {
      "bufferView": 0,
      "byteOffset": 84768,
      "componentType": 5125,
      "count": 690,
      "type": "SCALAR"
    }
  ],
  "asset": {
    "extras": {
      "author": "Arion Digital (https://sketchfab.com/andrewswihart)",
      "license": "CC-BY-4.0 (http://creativecommons.org/licenses/by/4.0/)",
      "source": "https://sketchfab.com/3d-models/airplane-white-and-red-742f06047a3d451e9c61951ef598c6ba",
      "title": "Airplane - White and Red"
    },
    "generator": "Sketchfab-12.68.0",
    "version": "2.0"
  },
  "bufferViews": [
    {
      "buffer": 0,
      "byteLength": 87528,
      "name": "floatBufferViews",
      "target": 34963
    },
    {
      "buffer": 0,
      "byteLength": 33600,
      "byteOffset": 87528,
      "byteStride": 8,
      "name": "floatBufferViews",
      "target": 34962
    },
    {
      "buffer": 0,
      "byteLength": 100800,
      "byteOffset": 121128,
      "byteStride": 12,
      "name": "floatBufferViews",
      "target": 34962
    }
  ],
  "buffers": [
    {
      "byteLength": 221928,
      "uri": "scene.bin"
    }
  ],
  "extensionsUsed": [
    "KHR_materials_clearcoat"
  ],
  "images": [
    {
      "uri": "textures/FUS__CIRRUSTS19.JPG_baseColor.jpeg"
    }
  ],
  "materials": [
    {
      "doubleSided": true,
      "emissiveFactor": [
        0.04000000000000001,
        0.04000000000000001,
        0.04000000000000001
      ],
      "extensions": {
        "KHR_materials_clearcoat": {
          "clearcoatFactor": 1.0,
          "clearcoatRoughnessFactor": 0.04
        }
      },
      "name": "FUS__CIRRUSTS19.JPG",
      "pbrMetallicRoughness": {
        "baseColorTexture": {
          "index": 0
        },
        "metallicFactor": 0.0,
        "roughnessFactor": 0.09884691538300905
      }
    },
    {
      "alphaMode": "BLEND",
      "doubleSided": true,
      "name": "GLASS__CIRRUSTS19.JPG",
      "pbrMetallicRoughness": {
        "baseColorFactor": [
          1.0,
          1.0,
          1.0,
          0.15901471983711674
        ],
        "baseColorTexture": {
          "index": 0
        },
        "metallicFactor": 0.0,
        "roughnessFactor": 0.6
      }
    }
  ],
  "meshes": [
    {
      "name": "VLJ_FUS__CIRRUSTS19.JPG_0",
      "primitives": [
        {
          "attributes": {
            "NORMAL": 1,
            "POSITION": 0,
            "TEXCOORD_0": 2
          },
          "indices": 3,
          "material": 0,
          "mode": 4
        }
      ]
    },
    {
      "name": "GLASS_GLASS__CIRRUSTS19.JPG_0",
      "primitives": [
        {
          "attributes": {
            "NORMAL": 5,
            "POSITION": 4,
            "TEXCOORD_0": 6
          },
          "indices": 7,
          "material": 1,
          "mode": 4
        }
      ]
    }
  ],
  "nodes": [
    {
      "children": [
        1
      ],
      "matrix": [
        1.0,
        0.0,
        0.0,
        0.0,
        0.0,
        2.220446049250313e-16,
        -1.0,
        0.0,
        0.0,
        1.0,
        2.220446049250313e-16,
        0.0,
        0.0,
        0.0,
        0.0,
        1.0
      ],
      "name": "Sketchfab_model"
    },
    {
      "children": [
        2
      ],
      "matrix": [
        1.0,
        0.0,
        0.0,
        0.0,
        0.0,
        0.0,
        1.0,
        0.0,
        0.0,
        -1.0,
        0.0,
        0.0,
        0.0,
        0.0,
        0.0,
        1.0
      ],
      "name": "VLJ19FBX.fbx"
    },
    {
      "children": [
        3
      ],
      "name": "RootNode"
    },
    {
      "children": [
        4
      ],
      "name": "blend_root"
    },
    {
      "children": [
        5,
        6
      ],
      "matrix": [
        1.0,
        0.0,
        0.0,
        0.0,
        0.0,
        2.220446049250313e-16,
        -1.0,
        0.0,
        0.0,
        1.0,
        2.220446049250313e-16,
        0.0,
        0.0,
        0.0,
        0.0,
        1.0
      ],
      "name": "VLJ"
    },
    {
      "mesh": 0,
      "name": "VLJ_FUS__CIRRUSTS19.JPG_0"
    },
    {
      "children": [
        7
      ],
      "name": "GLASS"
    },
    {
      "mesh": 1,
      "name": "GLASS_GLASS__CIRRUSTS19.JPG_0"
    }
  ],
  "samplers": [
    {
      "magFilter": 9729,
      "minFilter": 9987,
      "wrapS": 10497,
      "wrapT": 10497
    }
  ],
  "scene": 0,
  "scenes": [
    {
      "name": "Sketchfab_Scene",
      "nodes": [
        0
      ]
    }
  ],
  "textures": [
    {
      "sampler": 0,
      "source": 0
    }
  ]
}
